<svg xmlns="http://www.w3.org/2000/svg" xmlns:v="https://svgstorm.com"
viewBox = "0 0 512 512"
width="512"
height="512">
<g fill="None" fill-opacity="0.0" stroke="#000000" stroke-opacity="0.00" stroke-width="0.3"><path d="
M 0.00 192.00 
C 34.00 192.00 68.00 192.00 102.00 192.00
C 102.00 175.00 102.00 158.00 102.00 141.00
C 119.33 141.00 136.67 141.00 154.00 141.00
C 154.00 209.33 154.00 277.67 154.00 346.00
C 102.67 346.00 51.33 346.00 0.00 346.00
L 0.00 512.00
L 512.00 512.00
L 512.00 346.00
C 461.00 346.00 410.00 346.00 359.00 346.00
C 359.00 294.67 359.00 243.33 359.00 192.00
C 393.00 192.00 427.00 192.00 461.00 192.00
C 461.00 175.00 461.00 158.00 461.00 141.00
C 478.00 141.00 495.00 141.00 512.00 141.00
L 512.00 0.00
L 0.00 0.00
L 0.00 192.00
M 333.00 192.00 
C 333.00 243.33 333.00 294.67 333.00 346.00
C 282.00 346.00 231.00 346.00 180.00 346.00
C 180.00 294.67 180.00 243.33 180.00 192.00
C 231.00 192.00 282.00 192.00 333.00 192.00 Z"/>
</g>
<g fill="None" fill-opacity="0.0" stroke="#FEFFFF" stroke-opacity="0.98" stroke-width="0.3"><path d="
M 0.00 192.00 
L 0.00 193.00
C 1.67 242.60 1.67 295.47 0.00 345.00
L 0.00 346.00
C 51.33 346.00 102.67 346.00 154.00 346.00
C 154.00 277.67 154.00 209.33 154.00 141.00
C 136.67 141.00 119.33 141.00 102.00 141.00
C 102.00 158.00 102.00 175.00 102.00 192.00
C 68.00 192.00 34.00 192.00 0.00 192.00
M 102.00 244.00 
C 102.00 260.67 102.00 277.33 102.00 294.00
C 85.33 294.00 68.67 294.00 52.00 294.00
C 52.00 277.33 52.00 260.67 52.00 244.00
C 68.67 244.00 85.33 244.00 102.00 244.00 Z"/>
</g>
<g fill="None" fill-opacity="0.0" stroke="#FEFFFF" stroke-opacity="0.98" stroke-width="0.3"><path d="
M 512.00 346.00 
L 512.00 141.00
C 495.00 141.00 478.00 141.00 461.00 141.00
C 461.00 158.00 461.00 175.00 461.00 192.00
C 427.00 192.00 393.00 192.00 359.00 192.00
C 359.00 243.33 359.00 294.67 359.00 346.00
C 410.00 346.00 461.00 346.00 512.00 346.00
M 461.00 244.00 
C 461.00 260.67 461.00 277.33 461.00 294.00
C 444.33 294.00 427.67 294.00 411.00 294.00
C 411.00 277.33 411.00 260.67 411.00 244.00
C 427.67 244.00 444.33 244.00 461.00 244.00 Z"/>
</g>
<g fill="None" fill-opacity="0.0" stroke="#FEFFFF" stroke-opacity="0.98" stroke-width="0.3"><path d="
M 333.00 192.00 
C 282.00 192.00 231.00 192.00 180.00 192.00
C 180.00 243.33 180.00 294.67 180.00 346.00
C 231.00 346.00 282.00 346.00 333.00 346.00
C 333.00 294.67 333.00 243.33 333.00 192.00
M 281.00 244.00 
C 281.00 260.67 281.00 277.33 281.00 294.00
C 264.67 294.00 248.33 294.00 232.00 294.00
C 232.00 277.33 232.00 260.67 232.00 244.00
C 248.33 244.00 264.67 244.00 281.00 244.00 Z"/>
</g>
<g fill="None" fill-opacity="0.0" stroke="#FEFFFF" stroke-opacity="0.75" stroke-width="0.3"><path d="
M 0.00 345.00 
C 1.67 295.47 1.67 242.60 0.00 193.00
L 0.00 345.00 Z"/>
</g>
<g fill="None" fill-opacity="0.0" stroke="#000000" stroke-opacity="0.00" stroke-width="0.3"><path d="
M 102.00 244.00 
C 85.33 244.00 68.67 244.00 52.00 244.00
C 52.00 260.67 52.00 277.33 52.00 294.00
C 68.67 294.00 85.33 294.00 102.00 294.00
C 102.00 277.33 102.00 260.67 102.00 244.00 Z"/>
</g>
<g fill="None" fill-opacity="0.0" stroke="#000000" stroke-opacity="0.00" stroke-width="0.3"><path d="
M 281.00 244.00 
C 264.67 244.00 248.33 244.00 232.00 244.00
C 232.00 260.67 232.00 277.33 232.00 294.00
C 248.33 294.00 264.67 294.00 281.00 294.00
C 281.00 277.33 281.00 260.67 281.00 244.00 Z"/>
</g>
<g fill="None" fill-opacity="0.0" stroke="#000000" stroke-opacity="0.00" stroke-width="0.3"><path d="
M 461.00 244.00 
C 444.33 244.00 427.67 244.00 411.00 244.00
C 411.00 260.67 411.00 277.33 411.00 294.00
C 427.67 294.00 444.33 294.00 461.00 294.00
C 461.00 277.33 461.00 260.67 461.00 244.00 Z"/>
</g>
<g fill="#000000" fill-opacity="0.00" stroke="None">
<path d="
M 0.00 192.00 
C 34.00 192.00 68.00 192.00 102.00 192.00
C 102.00 175.00 102.00 158.00 102.00 141.00
C 119.33 141.00 136.67 141.00 154.00 141.00
C 154.00 209.33 154.00 277.67 154.00 346.00
C 102.67 346.00 51.33 346.00 0.00 346.00
L 0.00 512.00
L 512.00 512.00
L 512.00 346.00
C 461.00 346.00 410.00 346.00 359.00 346.00
C 359.00 294.67 359.00 243.33 359.00 192.00
C 393.00 192.00 427.00 192.00 461.00 192.00
C 461.00 175.00 461.00 158.00 461.00 141.00
C 478.00 141.00 495.00 141.00 512.00 141.00
L 512.00 0.00
L 0.00 0.00
L 0.00 192.00
M 333.00 192.00 
C 333.00 243.33 333.00 294.67 333.00 346.00
C 282.00 346.00 231.00 346.00 180.00 346.00
C 180.00 294.67 180.00 243.33 180.00 192.00
C 231.00 192.00 282.00 192.00 333.00 192.00 Z"/>
</g>
<g fill="#FEFFFF" fill-opacity="0.98" stroke="None">
<path d="
M 0.00 192.00 
L 0.00 193.00
C 1.67 242.60 1.67 295.47 0.00 345.00
L 0.00 346.00
C 51.33 346.00 102.67 346.00 154.00 346.00
C 154.00 277.67 154.00 209.33 154.00 141.00
C 136.67 141.00 119.33 141.00 102.00 141.00
C 102.00 158.00 102.00 175.00 102.00 192.00
C 68.00 192.00 34.00 192.00 0.00 192.00
M 102.00 244.00 
C 102.00 260.67 102.00 277.33 102.00 294.00
C 85.33 294.00 68.67 294.00 52.00 294.00
C 52.00 277.33 52.00 260.67 52.00 244.00
C 68.67 244.00 85.33 244.00 102.00 244.00 Z"/>
</g>
<g fill="#FEFFFF" fill-opacity="0.98" stroke="None">
<path d="
M 512.00 346.00 
L 512.00 141.00
C 495.00 141.00 478.00 141.00 461.00 141.00
C 461.00 158.00 461.00 175.00 461.00 192.00
C 427.00 192.00 393.00 192.00 359.00 192.00
C 359.00 243.33 359.00 294.67 359.00 346.00
C 410.00 346.00 461.00 346.00 512.00 346.00
M 461.00 244.00 
C 461.00 260.67 461.00 277.33 461.00 294.00
C 444.33 294.00 427.67 294.00 411.00 294.00
C 411.00 277.33 411.00 260.67 411.00 244.00
C 427.67 244.00 444.33 244.00 461.00 244.00 Z"/>
</g>
<g fill="#FEFFFF" fill-opacity="0.98" stroke="None">
<path d="
M 333.00 192.00 
C 282.00 192.00 231.00 192.00 180.00 192.00
C 180.00 243.33 180.00 294.67 180.00 346.00
C 231.00 346.00 282.00 346.00 333.00 346.00
C 333.00 294.67 333.00 243.33 333.00 192.00
M 281.00 244.00 
C 281.00 260.67 281.00 277.33 281.00 294.00
C 264.67 294.00 248.33 294.00 232.00 294.00
C 232.00 277.33 232.00 260.67 232.00 244.00
C 248.33 244.00 264.67 244.00 281.00 244.00 Z"/>
</g>
<g fill="#FEFFFF" fill-opacity="0.75" stroke="None">
<path d="
M 0.00 345.00 
C 1.67 295.47 1.67 242.60 0.00 193.00
L 0.00 345.00 Z"/>
</g>
<g fill="#000000" fill-opacity="0.00" stroke="None">
<path d="
M 102.00 244.00 
C 85.33 244.00 68.67 244.00 52.00 244.00
C 52.00 260.67 52.00 277.33 52.00 294.00
C 68.67 294.00 85.33 294.00 102.00 294.00
C 102.00 277.33 102.00 260.67 102.00 244.00 Z"/>
</g>
<g fill="#000000" fill-opacity="0.00" stroke="None">
<path d="
M 281.00 244.00 
C 264.67 244.00 248.33 244.00 232.00 244.00
C 232.00 260.67 232.00 277.33 232.00 294.00
C 248.33 294.00 264.67 294.00 281.00 294.00
C 281.00 277.33 281.00 260.67 281.00 244.00 Z"/>
</g>
<g fill="#000000" fill-opacity="0.00" stroke="None">
<path d="
M 461.00 244.00 
C 444.33 244.00 427.67 244.00 411.00 244.00
C 411.00 260.67 411.00 277.33 411.00 294.00
C 427.67 294.00 444.33 294.00 461.00 294.00
C 461.00 277.33 461.00 260.67 461.00 244.00 Z"/>
</g>
</svg>